<svg xmlns="http://www.w3.org/2000/svg" viewBox="-5.36 -30.4 64.18 43.54" data-name="crest_fin"
     data-joints="0,0 8,-4.2 18,-10.4 28,-15 38,-18.6 47,-21.6">
  <path d="M 0,-10
           C 2.62,-12.62 5.8,-14.65 9,-16.5
           C 12.23,-18.36 15.54,-20.1 19,-21.5
           C 22.57,-22.94 26.3,-23.94 30,-25
           C 33.58,-26.03 37.32,-26.42 41,-27
           C 43.47,-27.39 46,-27.4 48.5,-27.4
           C 50.22,-27.4 51.84,-26.53 53.4,-25.8
           C 54.61,-25.24 56.03,-23.91 55.8,-22.6
           C 55.61,-21.52 54.75,-20.55 53.8,-20
           C 51.3,-18.55 48.53,-17.6 46,-16.2
           C 45.18,-15.74 44.32,-15.35 43.5,-14.89
           C 42.44,-14.3 41.21,-15.85 40,-15.85
           C 38.05,-15.85 38.2,-12.12 36.5,-11.18
           C 35.77,-10.77 34.73,-11.31 34,-10.9
           C 32.98,-10.34 32.52,-9.02 31.5,-8.46
           C 30.45,-7.88 29.2,-9.25 28,-9.25
           C 26.02,-9.25 26.23,-5.4 24.5,-4.44
           C 23.66,-3.97 22.84,-3.47 22,-3
           C 21.17,-2.54 20.33,-4.84 19.5,-4.38
           C 18.34,-3.74 17.32,-2.5 16,-2.5
           C 14.05,-2.5 14.21,1.24 12.5,2.19
           C 11.05,2.99 9.45,3.5 8,4.3
           C 6.36,5.21 4.64,5.99 3,6.9
           C 1.74,7.6 1.25,9.28 0,10
           C -3.46,12 -2.83,-7.17 0,-10
         Z"/>
</svg>
