<svg xmlns="http://www.w3.org/2000/svg" viewBox="0 0 48 36" data-name="foot_pad"
     data-joints="0,0 12,-0.6 24,0.4 34,0.2 42,0.2">
  <path d="M -1,-1
           C -1.2,-2.3 -1.73,-4.03 -1.6,-5.6
           C -1.47,-7.17 -0.93,-8.97 -0.2,-10.4
           C 0.53,-11.83 1.53,-13.2 2.8,-14.2
           C 4.07,-15.2 5.77,-15.9 7.4,-16.4
           C 9.03,-16.9 10.83,-17.2 12.6,-17.2
           C 14.37,-17.2 16.37,-16.7 18,-16.4
           C 19.63,-16.1 21.03,-16 22.4,-15.4
           C 23.77,-14.8 24.97,-12.83 26.2,-12.8
           C 27.43,-12.77 28.6,-14.57 29.8,-15.2
           C 31,-15.83 31.97,-16.2 33.4,-16.6
           C 34.83,-17 37.07,-17.6 38.4,-17.6
           C 39.73,-17.6 40.3,-17.03 41.4,-16.6
           C 42.5,-16.17 44.27,-15.38 45,-15
           C 45.73,-14.62 45.8,-14.53 45.8,-14.3
           C 45.8,-14.07 45.73,-13.98 45,-13.6
           C 44.27,-13.22 42.5,-12.43 41.4,-12
           C 40.3,-11.57 39.67,-11.27 38.4,-11
           C 37.13,-10.73 34.97,-10.95 33.8,-10.4
           C 32.63,-9.85 31.4,-8.6 31.4,-7.7
           C 31.4,-6.8 32.87,-5.55 33.8,-5
           C 34.73,-4.45 35.9,-4.7 37,-4.4
           C 38.1,-4.1 39.13,-3.67 40.4,-3.2
           C 41.67,-2.73 43.77,-1.98 44.6,-1.6
           C 45.43,-1.22 45.4,-1.13 45.4,-0.9
           C 45.4,-0.67 45.43,-0.58 44.6,-0.2
           C 43.77,0.18 41.67,0.93 40.4,1.4
           C 39.13,1.87 38.07,2.3 37,2.6
           C 35.93,2.9 34.9,2.65 34,3.2
           C 33.1,3.75 31.6,5 31.6,5.9
           C 31.6,6.8 33.07,8.05 34,8.6
           C 34.93,9.15 36.13,8.9 37.2,9.2
           C 38.27,9.5 39.3,9.97 40.4,10.4
           C 41.5,10.83 43.13,11.47 43.8,11.8
           C 44.47,12.13 44.4,12.2 44.4,12.4
           C 44.4,12.6 44.47,12.67 43.8,13
           C 43.13,13.33 41.53,13.97 40.4,14.4
           C 39.27,14.83 38.4,15.4 37,15.6
           C 35.6,15.8 33.83,15.9 32,15.6
           C 30.17,15.3 28,13.8 26,13.8
           C 24,13.8 22,15.3 20,15.6
           C 18,15.9 15.93,15.77 14,15.6
           C 12.07,15.43 10.07,15.33 8.4,14.6
           C 6.73,13.87 5.27,12.57 4,11.2
           C 2.73,9.83 1.53,7.9 0.8,6.4
           C 0.07,4.9 -0.1,3.43 -0.4,2.2
           C -0.7,0.97 -0.8,0.3 -1,-1
           Z"/>
</svg>
