<svg xmlns="http://www.w3.org/2000/svg" width="128" height="128" viewBox="0 0 128 128"><defs><clipPath id="slit"><rect x="0" y="0" width="16" height="9"/></clipPath><clipPath id="half"><rect x="0" y="0" width="8" height="16"/></clipPath></defs><g stroke-linejoin="round" stroke-linecap="round"><ellipse cx="64" cy="63" rx="43" ry="45" fill="#d9b97e" stroke="#665441" stroke-width="6"/><ellipse cx="64" cy="63" rx="32" ry="34" fill="#e9d29b" stroke="#8e754d" stroke-width="3"/><path d="M43 83 L57 42 L82 42 L88 84Z" fill="#779b9a" stroke="#4d6466" stroke-width="4"/><g transform="translate(48 48) rotate(-18 16.0 16.0) scale(2.0 2.0)" fill="#f7e7ac" opacity="0.55" clip-path="url(#half)"><path d="M8 1a9 9 0 0 1 6.364 2.636A1 1 0 0 1 12.95 5.05 7 7 0 0 0 8 3a5 5 0 0 0 0 10 3 3 0 0 0 0-6 1 1 0 0 0 0 2 1 1 0 0 1 0 2 3 3 0 0 1 0-6 5 5 0 0 1 0 10A7 7 0 1 1 8 1"/></g></g></svg>